<svg width="19" height="19" viewBox="0 0 19 19" fill="none" xmlns="http://www.w3.org/2000/svg">
<path d="M18.9997 16.9997L13.8457 11.8457C14.7986 10.3976 15.1802 8.6475 14.9167 6.93418C14.6533 5.22086 13.7635 3.66623 12.4196 2.57129C11.0758 1.47635 9.37342 0.918983 7.6422 1.0071C5.91099 1.09523 4.27404 1.82257 3.04831 3.04831C1.82257 4.27404 1.09523 5.91099 1.0071 7.6422C0.918983 9.37342 1.47635 11.0758 2.57129 12.4196C3.66623 13.7635 5.22086 14.6533 6.93418 14.9167C8.6475 15.1802 10.3976 14.7986 11.8457 13.8457L16.9997 18.9997L18.9997 16.9997ZM2.99973 7.99973C2.99973 5.24273 5.24273 2.99973 7.99973 2.99973C10.7567 2.99973 12.9997 5.24273 12.9997 7.99973C12.9997 10.7567 10.7567 12.9997 7.99973 12.9997C5.24273 12.9997 2.99973 10.7567 2.99973 7.99973Z" fill="black"></path>
</svg>
